<?xml version="1.0" encoding="UTF-8"?>
<!DOCTYPE svg PUBLIC "-//W3C//DTD SVG 1.1//EN" "http://www.w3.org/Graphics/SVG/1.1/DTD/svg11.dtd">
<svg xmlns="http://www.w3.org/2000/svg" version="1.1" width="500px" height="500px" style="shape-rendering:geometricPrecision; text-rendering:geometricPrecision; image-rendering:optimizeQuality; fill-rule:evenodd; clip-rule:evenodd" xmlns:xlink="http://www.w3.org/1999/xlink">
<g><path style="opacity:0.004" fill="#fefffe" d="M 191.5,16.5 C 192.833,17.1667 192.833,17.1667 191.5,16.5 Z"/></g>
<g><path style="opacity:0.004" fill="#fefffe" d="M 49.5,26.5 C 50.8333,27.1667 50.8333,27.1667 49.5,26.5 Z"/></g>
<g><path style="opacity:0.004" fill="#fefffe" d="M 29.5,35.5 C 30.8333,36.1667 30.8333,36.1667 29.5,35.5 Z"/></g>
<g><path style="opacity:0.004" fill="#fefffe" d="M 474.5,35.5 C 475.833,36.1667 475.833,36.1667 474.5,35.5 Z"/></g>
<g><path style="opacity:0.004" fill="#fefffe" d="M 379.5,39.5 C 380.833,40.1667 380.833,40.1667 379.5,39.5 Z"/></g>
<g><path style="opacity:0.004" fill="#fefffe" d="M 123.5,47.5 C 124.833,48.1667 124.833,48.1667 123.5,47.5 Z"/></g>
<g><path style="opacity:0.004" fill="#fefffe" d="M 277.5,47.5 C 278.833,48.1667 278.833,48.1667 277.5,47.5 Z"/></g>
<g><path style="opacity:0.004" fill="#fefffe" d="M 23.5,59.5 C 24.8333,60.1667 24.8333,60.1667 23.5,59.5 Z"/></g>
<g><path style="opacity:0.004" fill="#fefffe" d="M 133.5,60.5 C 134.833,61.1667 134.833,61.1667 133.5,60.5 Z"/></g>
<g><path style="opacity:0.004" fill="#fefffe" d="M 376.5,62.5 C 377.833,63.1667 377.833,63.1667 376.5,62.5 Z"/></g>
<g><path style="opacity:0.004" fill="#fefffe" d="M 166.5,78.5 C 167.833,79.1667 167.833,79.1667 166.5,78.5 Z"/></g>
<g><path style="opacity:0.004" fill="#fefffe" d="M 386.5,78.5 C 387.833,79.1667 387.833,79.1667 386.5,78.5 Z"/></g>
<g><path style="opacity:0.004" fill="#fefffe" d="M 259.5,80.5 C 260.833,81.1667 260.833,81.1667 259.5,80.5 Z"/></g>
<g><path style="opacity:0.004" fill="#fefffe" d="M 94.5,82.5 C 95.8333,83.1667 95.8333,83.1667 94.5,82.5 Z"/></g>
<g><path style="opacity:0.004" fill="#fefffe" d="M 363.5,91.5 C 364.833,92.1667 364.833,92.1667 363.5,91.5 Z"/></g>
<g><path style="opacity:0.004" fill="#fefffe" d="M 221.5,96.5 C 222.833,97.1667 222.833,97.1667 221.5,96.5 Z"/></g>
<g><path style="opacity:0.004" fill="#fefffe" d="M 366.5,97.5 C 367.833,98.1667 367.833,98.1667 366.5,97.5 Z"/></g>
<g><path style="opacity:0.004" fill="#fefffe" d="M 216.5,99.5 C 217.833,100.167 217.833,100.167 216.5,99.5 Z"/></g>
<g><path style="opacity:0.004" fill="#fefffe" d="M 434.5,106.5 C 435.833,107.167 435.833,107.167 434.5,106.5 Z"/></g>
<g><path style="opacity:0.004" fill="#fefffe" d="M 137.5,111.5 C 138.833,112.167 138.833,112.167 137.5,111.5 Z"/></g>
<g><path style="opacity:0.004" fill="#fefffe" d="M 47.5,119.5 C 48.8333,120.167 48.8333,120.167 47.5,119.5 Z"/></g>
<g><path style="opacity:0.004" fill="#fefffe" d="M 52.5,131.5 C 53.8333,132.167 53.8333,132.167 52.5,131.5 Z"/></g>
<g><path style="opacity:0.004" fill="#fefffe" d="M 139.5,132.5 C 140.833,133.167 140.833,133.167 139.5,132.5 Z"/></g>
<g><path style="opacity:0.004" fill="#fefffe" d="M 264.5,133.5 C 265.833,134.167 265.833,134.167 264.5,133.5 Z"/></g>
<g><path style="opacity:0.004" fill="#fefffe" d="M 98.5,141.5 C 99.8333,142.167 99.8333,142.167 98.5,141.5 Z"/></g>
<g><path style="opacity:0.004" fill="#fefffe" d="M 466.5,142.5 C 467.833,143.167 467.833,143.167 466.5,142.5 Z"/></g>
<g><path style="opacity:0.004" fill="#fefffe" d="M 314.5,146.5 C 315.833,147.167 315.833,147.167 314.5,146.5 Z"/></g>
<g><path style="opacity:0.004" fill="#fefffe" d="M 438.5,146.5 C 439.833,147.167 439.833,147.167 438.5,146.5 Z"/></g>
<g><path style="opacity:0.004" fill="#fefffe" d="M 193.5,157.5 C 194.833,158.167 194.833,158.167 193.5,157.5 Z"/></g>
<g><path style="opacity:0.004" fill="#fefffe" d="M 125.5,178.5 C 126.833,179.167 126.833,179.167 125.5,178.5 Z"/></g>
<g><path style="opacity:0.004" fill="#fefffe" d="M 23.5,179.5 C 24.8333,180.167 24.8333,180.167 23.5,179.5 Z"/></g>
<g><path style="opacity:0.004" fill="#fefffe" d="M 321.5,186.5 C 322.833,187.167 322.833,187.167 321.5,186.5 Z"/></g>
<g><path style="opacity:0.004" fill="#fefffe" d="M 40.5,187.5 C 41.8333,188.167 41.8333,188.167 40.5,187.5 Z"/></g>
<g><path style="opacity:0.004" fill="#fefffe" d="M 48.5,189.5 C 49.8333,190.167 49.8333,190.167 48.5,189.5 Z"/></g>
<g><path style="opacity:0.004" fill="#fefffe" d="M 269.5,189.5 C 270.833,190.167 270.833,190.167 269.5,189.5 Z"/></g>
<g><path style="opacity:0.055" fill="#eedb87" d="M 125.5,202.5 C 125.5,201.5 125.5,200.5 125.5,199.5C 108.167,199.5 90.8333,199.5 73.5,199.5C 73.5,200.5 73.5,201.5 73.5,202.5C 72.5655,201.432 72.2322,200.099 72.5,198.5C 90.5,198.5 108.5,198.5 126.5,198.5C 126.768,200.099 126.434,201.432 125.5,202.5 Z"/></g>
<g><path style="opacity:0.946" fill="#f5dc73" d="M 49.5,200.5 C 34.785,200.2 20.1183,200.533 5.5,201.5C 6.347,200.034 7.68034,199.2 9.5,199C 21.5,198.333 33.5,198.333 45.5,199C 47.0581,199.21 48.3915,199.71 49.5,200.5 Z"/></g>
<g><path style="opacity:1" fill="#fcde60" d="M 49.5,200.5 C 59.1337,208.466 68.1337,217.133 76.5,226.5C 74.9826,226.489 73.8159,225.823 73,224.5C 72.2904,225.973 71.1238,226.64 69.5,226.5C 69.6602,228.199 69.4935,229.866 69,231.5C 68.2825,230.549 67.4491,230.383 66.5,231C 69.3812,233.614 72.5478,235.78 76,237.5C 76.3333,238.833 76.6667,240.167 77,241.5C 77.3333,241.167 77.6667,240.833 78,240.5C 78.6995,242.032 79.8662,243.032 81.5,243.5C 83.1195,247.106 85.1195,250.44 87.5,253.5C 73.0348,239.535 58.7015,225.369 44.5,211C 33.5,210.333 22.5,210.333 11.5,211C 32.4179,232.42 53.7513,253.253 75.5,273.5C 74.4324,274.434 73.099,274.768 71.5,274.5C 71.4386,276.592 70.4386,278.092 68.5,279C 70.0444,280.187 71.7111,280.52 73.5,280C 72.2888,279.107 72.2888,278.274 73.5,277.5C 74.9347,278.824 75.9347,280.49 76.5,282.5C 77.6951,280.703 79.3618,279.703 81.5,279.5C 81.5,278.167 81.5,276.833 81.5,275.5C 83.9328,275.273 85.5994,276.273 86.5,278.5C 81.1019,285.348 74.4352,286.848 66.5,283C 44.973,261.473 23.473,239.973 2,218.5C 1.24316,216.685 0.409824,215.019 -0.5,213.5C -0.5,212.167 -0.5,210.833 -0.5,209.5C 0.537244,206.084 2.53724,203.417 5.5,201.5C 20.1183,200.533 34.785,200.2 49.5,200.5 Z"/></g>
<g><path style="opacity:1" fill="#fddf5f" d="M 125.5,202.5 C 117.483,211.683 108.65,220.017 99,227.5C 90.0073,219.674 81.5073,211.341 73.5,202.5C 73.5,201.5 73.5,200.5 73.5,199.5C 90.8333,199.5 108.167,199.5 125.5,199.5C 125.5,200.5 125.5,201.5 125.5,202.5 Z"/></g>
<g><path style="opacity:1" fill="#fdde59" d="M 149.5,200.5 C 163.171,200.333 176.837,200.5 190.5,201C 189.692,201.308 189.025,201.808 188.5,202.5C 190.621,202.54 192.621,203.04 194.5,204C 195.489,205.82 196.489,207.653 197.5,209.5C 197.586,212.849 196.92,216.182 195.5,219.5C 194.5,221.167 193.167,222.5 191.5,223.5C 187.83,223.189 184.83,221.522 182.5,218.5C 184.278,216.736 185.611,214.736 186.5,212.5C 188.031,211.075 187.698,210.409 185.5,210.5C 185.389,209.883 185.056,209.383 184.5,209C 172.807,208.254 161.14,208.42 149.5,209.5C 149.297,207.61 149.963,206.11 151.5,205C 149.963,203.89 149.297,202.39 149.5,200.5 Z"/></g>
<g><path style="opacity:0.004" fill="#fefffe" d="M 349.5,200.5 C 350.833,201.167 350.833,201.167 349.5,200.5 Z"/></g>
<g><path style="opacity:0.004" fill="#fefffe" d="M 333.5,205.5 C 334.833,206.167 334.833,206.167 333.5,205.5 Z"/></g>
<g><path style="opacity:0.004" fill="#fefffe" d="M 329.5,210.5 C 330.833,211.167 330.833,211.167 329.5,210.5 Z"/></g>
<g><path style="opacity:0.975" fill="#f6df72" d="M 195.5,219.5 C 196.92,216.182 197.586,212.849 197.5,209.5C 196.489,207.653 195.489,205.82 194.5,204C 192.621,203.04 190.621,202.54 188.5,202.5C 189.025,201.808 189.692,201.308 190.5,201C 176.837,200.5 163.171,200.333 149.5,200.5C 150.263,199.732 151.263,199.232 152.5,199C 165.89,198.076 179.223,198.409 192.5,200C 200.071,205.775 201.071,212.275 195.5,219.5 Z"/></g>
<g><path style="opacity:0.004" fill="#fefffe" d="M 272.5,212.5 C 273.833,213.167 273.833,213.167 272.5,212.5 Z"/></g>
<g><path style="opacity:1" fill="#fbde62" d="M 149.5,200.5 C 149.297,202.39 149.963,203.89 151.5,205C 149.963,206.11 149.297,207.61 149.5,209.5C 161.14,208.42 172.807,208.254 184.5,209C 185.056,209.383 185.389,209.883 185.5,210.5C 175.161,210.334 164.828,210.5 154.5,211C 139.333,226.167 124.167,241.333 109,256.5C 108.333,257.167 108.333,257.833 109,258.5C 111.04,260.37 112.873,262.37 114.5,264.5C 113.167,264.5 111.833,264.5 110.5,264.5C 109.977,261.972 108.977,259.639 107.5,257.5C 108.552,255.777 108.552,254.11 107.5,252.5C 108.833,251.833 110.167,251.167 111.5,250.5C 109.898,247.763 109.064,244.763 109,241.5C 106.522,243.943 104.688,246.776 103.5,250C 99.2053,251.193 96.5386,249.693 95.5,245.5C 96.8979,247.109 98.5646,247.942 100.5,248C 116.419,231.579 132.752,215.746 149.5,200.5 Z"/></g>
<g><path style="opacity:0.004" fill="#fefffe" d="M 109.5,222.5 C 110.833,223.167 110.833,223.167 109.5,222.5 Z"/></g>
<g><path style="opacity:0.004" fill="#fefffe" d="M 479.5,222.5 C 480.833,223.167 480.833,223.167 479.5,222.5 Z"/></g>
<g><path style="opacity:0.004" fill="#fefffe" d="M 264.5,228.5 C 265.833,229.167 265.833,229.167 264.5,228.5 Z"/></g>
<g><path style="opacity:0.004" fill="#fefffe" d="M 214.5,231.5 C 215.833,232.167 215.833,232.167 214.5,231.5 Z"/></g>
<g><path style="opacity:1" fill="#fcde60" d="M 186.5,212.5 C 185.611,214.736 184.278,216.736 182.5,218.5C 184.83,221.522 187.83,223.189 191.5,223.5C 171.673,244.16 151.34,264.327 130.5,284C 126.5,286 122.5,286 118.5,284C 111.996,278.663 105.996,272.829 100.5,266.5C 102.764,267.219 105.097,267.552 107.5,267.5C 107.612,272.593 108.445,272.593 110,267.5C 111,268.833 112,268.833 113,267.5C 113.687,269.555 114.854,271.221 116.5,272.5C 116.833,271.833 117.167,271.167 117.5,270.5C 116.037,268.711 115.037,266.711 114.5,264.5C 117.631,267.129 120.631,269.962 123.5,273C 124.167,273.667 124.833,273.667 125.5,273C 145.701,252.632 166.035,232.465 186.5,212.5 Z"/></g>
<g><path style="opacity:0.004" fill="#fefffe" d="M 275.5,239.5 C 276.833,240.167 276.833,240.167 275.5,239.5 Z"/></g>
<g><path style="opacity:0.004" fill="#fefffe" d="M 197.5,244.5 C 198.833,245.167 198.833,245.167 197.5,244.5 Z"/></g>
<g><path style="opacity:1" fill="#fcde5c" d="M 76.5,226.5 C 83.1667,232.5 89.5,238.833 95.5,245.5C 96.5386,249.693 99.2053,251.193 103.5,250C 104.688,246.776 106.522,243.943 109,241.5C 109.064,244.763 109.898,247.763 111.5,250.5C 110.167,251.167 108.833,251.833 107.5,252.5C 108.552,254.11 108.552,255.777 107.5,257.5C 108.977,259.639 109.977,261.972 110.5,264.5C 111.833,264.5 113.167,264.5 114.5,264.5C 115.037,266.711 116.037,268.711 117.5,270.5C 117.167,271.167 116.833,271.833 116.5,272.5C 114.854,271.221 113.687,269.555 113,267.5C 112,268.833 111,268.833 110,267.5C 108.445,272.593 107.612,272.593 107.5,267.5C 105.097,267.552 102.764,267.219 100.5,266.5C 95.5584,270.103 90.8918,274.103 86.5,278.5C 85.5994,276.273 83.9328,275.273 81.5,275.5C 81.5,276.833 81.5,278.167 81.5,279.5C 79.3618,279.703 77.6951,280.703 76.5,282.5C 75.9347,280.49 74.9347,278.824 73.5,277.5C 72.2888,278.274 72.2888,279.107 73.5,280C 71.7111,280.52 70.0444,280.187 68.5,279C 70.4386,278.092 71.4386,276.592 71.5,274.5C 73.099,274.768 74.4324,274.434 75.5,273.5C 80.1302,268.369 84.9635,263.369 90,258.5C 89.9421,256.565 89.1088,254.898 87.5,253.5C 85.1195,250.44 83.1195,247.106 81.5,243.5C 79.8662,243.032 78.6995,242.032 78,240.5C 77.6667,240.833 77.3333,241.167 77,241.5C 76.6667,240.167 76.3333,238.833 76,237.5C 72.5478,235.78 69.3812,233.614 66.5,231C 67.4491,230.383 68.2825,230.549 69,231.5C 69.4935,229.866 69.6602,228.199 69.5,226.5C 71.1238,226.64 72.2904,225.973 73,224.5C 73.8159,225.823 74.9826,226.489 76.5,226.5 Z"/></g>
<g><path style="opacity:0.004" fill="#fefffe" d="M 312.5,250.5 C 313.833,251.167 313.833,251.167 312.5,250.5 Z"/></g>
<g><path style="opacity:0.004" fill="#fefffe" d="M 16.5,252.5 C 17.8333,253.167 17.8333,253.167 16.5,252.5 Z"/></g>
<g><path style="opacity:0.362" fill="#f8e279" d="M 297.5,263.5 C 298.162,261.53 298.828,259.53 299.5,257.5C 290.525,256.502 281.525,256.168 272.5,256.5C 272.5,264.5 272.5,272.5 272.5,280.5C 271.507,272.35 271.174,264.017 271.5,255.5C 281.167,255.5 290.833,255.5 300.5,255.5C 300.663,257.857 300.497,260.19 300,262.5C 299.329,263.252 298.496,263.586 297.5,263.5 Z"/></g>
<g><path style="opacity:0.38" fill="#f7e27f" d="M 438.5,256.5 C 448.325,255.342 458.325,255.175 468.5,256C 470.1,258.64 469.766,260.807 467.5,262.5C 467.5,260.5 467.5,258.5 467.5,256.5C 457.833,256.5 448.167,256.5 438.5,256.5 Z"/></g>
<g><path style="opacity:0.994" fill="#fcdf5e" d="M 232.5,255.5 C 240.84,255.334 249.173,255.5 257.5,256C 265.212,256.584 268.879,260.751 268.5,268.5C 267.866,276.96 263.199,281.126 254.5,281C 247.589,280.909 240.756,281.076 234,281.5C 232.531,273.003 232.031,264.336 232.5,255.5 Z M 244.5,262.5 C 247.646,262.559 250.98,263.059 254.5,264C 257.299,267.339 256.966,270.339 253.5,273C 250.183,273.498 246.85,273.665 243.5,273.5C 244.021,269.797 244.354,266.13 244.5,262.5 Z"/></g>
<g><path style="opacity:0.998" fill="#fddf59" d="M 297.5,263.5 C 292.786,263.173 288.12,263.507 283.5,264.5C 287.73,265.349 292.396,265.682 297.5,265.5C 297.5,267.5 297.5,269.5 297.5,271.5C 292.788,271.619 288.288,271.619 284,271.5C 283.5,272 283,272.5 282.5,273C 288.825,273.5 295.158,273.666 301.5,273.5C 301.768,276.119 301.435,278.619 300.5,281C 290.741,280.555 281.407,280.388 272.5,280.5C 272.5,272.5 272.5,264.5 272.5,256.5C 281.525,256.168 290.525,256.502 299.5,257.5C 298.828,259.53 298.162,261.53 297.5,263.5 Z"/></g>
<g><path style="opacity:0.997" fill="#fddd57" d="M 353.5,273.5 C 359.5,273.5 365.5,273.5 371.5,273.5C 371.5,275.833 371.5,278.167 371.5,280.5C 362.14,281.456 352.807,281.456 343.5,280.5C 342.533,272.586 342.199,264.586 342.5,256.5C 345.833,256.5 349.167,256.5 352.5,256.5C 352.178,262.358 352.511,268.025 353.5,273.5 Z"/></g>
<g><path style="opacity:0.219" fill="#f8e279" d="M 353.5,273.5 C 352.511,268.025 352.178,262.358 352.5,256.5C 349.167,256.5 345.833,256.5 342.5,256.5C 342.199,264.586 342.533,272.586 343.5,280.5C 341.532,272.567 340.865,264.234 341.5,255.5C 345.5,255.5 349.5,255.5 353.5,255.5C 353.5,261.5 353.5,267.5 353.5,273.5 Z"/></g>
<g><path style="opacity:1" fill="#fde065" d="M 372.5,255.5 C 376.703,255.076 380.703,255.576 384.5,257C 383.919,257.893 383.585,258.893 383.5,260C 384.164,264.144 384.664,268.311 385,272.5C 388.394,274.275 391.06,273.608 393,270.5C 393.393,265.799 393.393,261.132 393,256.5C 396.73,255.54 400.563,255.207 404.5,255.5C 408.974,277.525 400.307,285.692 378.5,280C 375.619,278.749 373.786,276.583 373,273.5C 371.818,267.443 371.651,261.443 372.5,255.5 Z"/></g>
<g><path style="opacity:0.944" fill="#fde05f" d="M 437.5,261.5 C 437.5,261.833 437.5,262.167 437.5,262.5C 437.244,264.776 435.91,265.943 433.5,266C 439.09,271.41 438.423,276.077 431.5,280C 424.362,282.22 417.362,281.886 410.5,279C 405.792,275.804 405.792,273.137 410.5,271C 404.602,264.729 405.602,259.729 413.5,256C 422.814,252.831 430.814,254.664 437.5,261.5 Z"/></g>
<g><path style="opacity:1" fill="#fcde5f" d="M 304.5,255.5 C 313.173,255.334 321.84,255.5 330.5,256C 340.024,259.023 341.69,264.356 335.5,272C 337.574,274.302 338.908,276.968 339.5,280C 335.598,281.635 331.598,281.801 327.5,280.5C 327.57,276.07 325.403,273.737 321,273.5C 319.249,274.174 317.583,274.507 316,274.5C 315.86,277.043 315.194,279.377 314,281.5C 311.024,281.497 307.857,281.163 304.5,280.5C 304.5,272.167 304.5,263.833 304.5,255.5 Z M 316.5,262.5 C 320.259,261.865 323.926,262.531 327.5,264.5C 327.291,265.086 326.957,265.586 326.5,266C 322.848,266.499 319.182,266.665 315.5,266.5C 315.433,265.041 315.766,263.708 316.5,262.5 Z"/></g>
<g><path style="opacity:0.944" fill="#f5dc78" d="M 226.5,280.5 C 226.5,272.5 226.5,264.5 226.5,256.5C 223.5,256.5 220.5,256.5 217.5,256.5C 217.81,259.713 217.477,262.713 216.5,265.5C 216.5,262.167 216.5,258.833 216.5,255.5C 220.5,255.5 224.5,255.5 228.5,255.5C 229.135,264.234 228.468,272.567 226.5,280.5 Z"/></g>
<g><path style="opacity:0.982" fill="#fde158" d="M 438.5,256.5 C 448.167,256.5 457.833,256.5 467.5,256.5C 467.5,258.5 467.5,260.5 467.5,262.5C 464.833,262.833 462.167,263.167 459.5,263.5C 459.5,269.167 459.5,274.833 459.5,280.5C 456.728,280.22 454.228,280.887 452,282.5C 450.229,281.696 448.729,280.529 447.5,279C 447.602,274.045 447.602,268.878 447.5,263.5C 444.167,263.167 440.833,262.833 437.5,262.5C 437.5,262.167 437.5,261.833 437.5,261.5C 437.629,259.784 437.962,258.117 438.5,256.5 Z"/></g>
<g><path style="opacity:0.992" fill="#fcde5a" d="M 162.5,255.5 C 166.182,255.335 169.848,255.501 173.5,256C 178.625,263.749 183.625,271.582 188.5,279.5C 185.43,281.399 182.264,282.065 179,281.5C 176.215,278.024 172.549,276.691 168,277.5C 165.5,277.667 163,277.833 160.5,278C 157.065,280.891 153.065,281.891 148.5,281C 147.549,280.282 147.383,279.449 148,278.5C 153.058,270.949 157.891,263.283 162.5,255.5 Z M 167.5,264.5 C 168.601,265.848 169.601,267.348 170.5,269C 168.899,269.273 167.399,269.773 166,270.5C 166.15,268.494 166.65,266.494 167.5,264.5 Z"/></g>
<g><path style="opacity:0.999" fill="#fcde5e" d="M 216.5,265.5 C 217.477,262.713 217.81,259.713 217.5,256.5C 220.5,256.5 223.5,256.5 226.5,256.5C 226.5,264.5 226.5,272.5 226.5,280.5C 222.611,281.694 218.611,281.528 214.5,280C 210.667,275.5 206.833,271 203,266.5C 202.667,271.167 202.333,275.833 202,280.5C 198.24,281.357 194.406,281.357 190.5,280.5C 190.5,272.167 190.5,263.833 190.5,255.5C 195.179,255.334 199.845,255.501 204.5,256C 208.333,260.5 212.167,265 216,269.5C 216.49,268.207 216.657,266.873 216.5,265.5 Z"/></g>
<g><path style="opacity:0.004" fill="#fefffe" d="M 28.5,271.5 C 29.8333,272.167 29.8333,272.167 28.5,271.5 Z"/></g>
<g><path style="opacity:0.004" fill="#fefffe" d="M 482.5,275.5 C 483.833,276.167 483.833,276.167 482.5,275.5 Z"/></g>
<g><path style="opacity:0.004" fill="#fefffe" d="M 11.5,279.5 C 12.8333,280.167 12.8333,280.167 11.5,279.5 Z"/></g>
<g><path style="opacity:0.004" fill="#fefffe" d="M 197.5,283.5 C 198.833,284.167 198.833,284.167 197.5,283.5 Z"/></g>
<g><path style="opacity:0.004" fill="#fefffe" d="M 93.5,284.5 C 94.8333,285.167 94.8333,285.167 93.5,284.5 Z"/></g>
<g><path style="opacity:0.004" fill="#fefffe" d="M 160.5,286.5 C 161.833,287.167 161.833,287.167 160.5,286.5 Z"/></g>
<g><path style="opacity:0.514" fill="#f6e46f" d="M 222.5,293.5 C 223.5,293.5 224.5,293.5 225.5,293.5C 225.5,297.833 225.5,302.167 225.5,306.5C 227.833,306.5 230.167,306.5 232.5,306.5C 232.5,307.5 232.5,308.5 232.5,309.5C 229.223,309.784 226.057,309.451 223,308.5C 222.501,303.511 222.334,298.511 222.5,293.5 Z"/></g>
<g><path style="opacity:0.004" fill="#fefffe" d="M 377.5,294.5 C 378.833,295.167 378.833,295.167 377.5,294.5 Z"/></g>
<g><path style="opacity:0.996" fill="#f7e77f" d="M 83.5,293.5 C 87.1667,293.5 90.8333,293.5 94.5,293.5C 94.5,294.5 94.5,295.5 94.5,296.5C 93.1779,296.33 92.0113,296.663 91,297.5C 90.6667,301.167 90.3333,304.833 90,308.5C 89.586,308.957 89.086,309.291 88.5,309.5C 87.1038,308.148 86.4371,306.481 86.5,304.5C 86.9971,302.182 87.3305,299.848 87.5,297.5C 84.2043,297.55 82.871,296.217 83.5,293.5 Z"/></g>
<g><path style="opacity:0.004" fill="#fefffe" d="M 150.5,295.5 C 151.833,296.167 151.833,296.167 150.5,295.5 Z"/></g>
<g><path style="opacity:0.914" fill="#fae561" d="M 281.5,293.5 C 283.411,293.574 284.578,294.574 285,296.5C 285.866,300.264 287.033,303.931 288.5,307.5C 288.192,308.308 287.692,308.975 287,309.5C 284.297,305.7 281.463,305.7 278.5,309.5C 277.692,309.192 277.025,308.692 276.5,308C 278.604,303.309 280.27,298.476 281.5,293.5 Z"/></g>
<g><path style="opacity:0.973" fill="#fae77d" d="M 415.5,293.5 C 418.888,293.874 420.722,295.874 421,299.5C 421.45,297.481 422.283,295.648 423.5,294C 425.074,293.301 426.407,293.635 427.5,295C 424.165,299.499 421.832,304.332 420.5,309.5C 419.47,304.272 417.47,299.439 414.5,295C 415.056,294.617 415.389,294.117 415.5,293.5 Z"/></g>
<g><path style="opacity:0.004" fill="#fefffe" d="M 351.5,300.5 C 352.833,301.167 352.833,301.167 351.5,300.5 Z"/></g>
<g><path style="opacity:0.347" fill="#fbe772" d="M 333.5,293.5 C 336.518,293.335 339.518,293.502 342.5,294C 343.641,294.741 343.641,295.575 342.5,296.5C 340.5,297.333 338.5,298.167 336.5,299C 338.025,300.009 339.692,300.509 341.5,300.5C 341.719,301.675 341.386,302.675 340.5,303.5C 339.069,303.977 337.736,304.643 336.5,305.5C 338.217,305.791 340.217,306.457 342.5,307.5C 339.662,309.102 336.662,309.602 333.5,309C 333.351,303.921 333.351,298.754 333.5,293.5 Z"/></g>
<g><path style="opacity:0.933" fill="#fbe26a" d="M 112.5,293.5 C 117.254,292.543 120.587,294.21 122.5,298.5C 121.872,300.258 120.872,301.758 119.5,303C 121.181,304.945 121.848,306.945 121.5,309C 120.833,309.667 120.167,309.667 119.5,309C 118.696,307.229 117.529,305.729 116,304.5C 115.727,306.101 115.227,307.601 114.5,309C 113.275,309.563 112.275,309.23 111.5,308C 112.329,303.108 112.662,298.275 112.5,293.5 Z M 115.5,297.5 C 119.489,299.534 119.155,300.367 114.5,300C 115.252,299.329 115.586,298.496 115.5,297.5 Z"/></g>
<g><path style="opacity:0.8" fill="#f8e267" d="M 195.5,293.5 C 198.5,293.5 201.5,293.5 204.5,293.5C 204.67,294.822 204.337,295.989 203.5,297C 201.295,298.077 199.295,298.743 197.5,299C 199.631,299.543 201.631,300.376 203.5,301.5C 202.215,303.659 200.548,304.326 198.5,303.5C 197.614,304.325 197.281,305.325 197.5,306.5C 199.924,306.192 202.257,306.526 204.5,307.5C 201.634,308.208 198.8,308.875 196,309.5C 195.805,304.582 195.305,299.749 194.5,295C 195.056,294.617 195.389,294.117 195.5,293.5 Z"/></g>
<g><path style="opacity:0.424" fill="#fbe466" d="M 360.5,293.5 C 361.822,293.33 362.989,293.663 364,294.5C 365,296.5 366,298.5 367,300.5C 367.333,298.5 367.667,296.5 368,294.5C 368.414,294.043 368.914,293.709 369.5,293.5C 370.494,298.456 370.827,303.456 370.5,308.5C 367.728,308.405 365.728,307.071 364.5,304.5C 363.548,306.045 363.215,307.712 363.5,309.5C 362.5,309.5 361.5,309.5 360.5,309.5C 360.5,304.167 360.5,298.833 360.5,293.5 Z"/></g>
<g><path style="opacity:0.675" fill="#f8e25b" d="M 143.5,293.5 C 145.335,294.122 146.502,295.456 147,297.5C 147.773,301.153 148.94,304.653 150.5,308C 149.975,308.692 149.308,309.192 148.5,309.5C 147.108,308.395 145.941,307.061 145,305.5C 143.045,306.453 141.378,307.787 140,309.5C 139.308,308.975 138.808,308.308 138.5,307.5C 140.173,302.792 141.84,298.125 143.5,293.5 Z M 143.5,300.5 C 144.289,300.783 144.956,301.283 145.5,302C 144.184,302.528 143.517,302.028 143.5,300.5 Z"/></g>
<g><path style="opacity:0.796" fill="#f9e377" d="M 307.5,293.5 C 312.451,292.629 315.118,294.629 315.5,299.5C 313.857,299.52 312.524,298.853 311.5,297.5C 308.196,298.776 307.029,301.109 308,304.5C 309.241,306.421 310.741,306.754 312.5,305.5C 311.675,304.614 310.675,304.281 309.5,304.5C 309.312,302.897 309.812,301.563 311,300.5C 312.398,301.051 313.732,301.384 315,301.5C 316.65,306.068 315.15,308.734 310.5,309.5C 306.097,308.712 304.097,306.046 304.5,301.5C 304.4,298.376 305.4,295.71 307.5,293.5 Z"/></g>
<g><path style="opacity:0.941" fill="#fbe366" d="M 166.5,293.5 C 167.5,293.5 168.5,293.5 169.5,293.5C 170.317,296.479 171.151,299.479 172,302.5C 172.667,299.833 173.333,297.167 174,294.5C 175.011,293.663 176.178,293.33 177.5,293.5C 176.494,297.858 175.327,302.191 174,306.5C 173.632,307.91 172.799,308.91 171.5,309.5C 169.314,304.95 167.314,300.283 165.5,295.5C 165.863,294.817 166.196,294.15 166.5,293.5 Z"/></g>
<g><path style="opacity:0.004" fill="#fefffe" d="M 202.5,304.5 C 203.833,305.167 203.833,305.167 202.5,304.5 Z"/></g>
<g><path style="opacity:0.035" fill="#fbe474" d="M 391.5,293.5 C 395.188,293.178 397.855,294.678 399.5,298C 398.892,298.87 398.059,299.37 397,299.5C 395.531,297.586 393.865,296.919 392,297.5C 391.333,300.167 391.333,302.833 392,305.5C 392.414,305.957 392.914,306.291 393.5,306.5C 394.695,304.703 396.362,303.703 398.5,303.5C 397.341,309.566 394.174,310.9 389,307.5C 386.425,302.034 387.258,297.367 391.5,293.5 Z"/></g>
<g><path style="opacity:0.004" fill="#fefffe" d="M 52.5,309.5 C 53.8333,310.167 53.8333,310.167 52.5,309.5 Z"/></g>
<g><path style="opacity:0.004" fill="#fefffe" d="M 319.5,315.5 C 320.833,316.167 320.833,316.167 319.5,315.5 Z"/></g>
<g><path style="opacity:0.004" fill="#fefffe" d="M 387.5,315.5 C 388.833,316.167 388.833,316.167 387.5,315.5 Z"/></g>
<g><path style="opacity:0.004" fill="#fefffe" d="M 90.5,317.5 C 91.8333,318.167 91.8333,318.167 90.5,317.5 Z"/></g>
<g><path style="opacity:0.004" fill="#fefffe" d="M 39.5,325.5 C 40.8333,326.167 40.8333,326.167 39.5,325.5 Z"/></g>
<g><path style="opacity:0.004" fill="#fefffe" d="M 30.5,330.5 C 31.8333,331.167 31.8333,331.167 30.5,330.5 Z"/></g>
<g><path style="opacity:0.004" fill="#fefffe" d="M 11.5,339.5 C 12.8333,340.167 12.8333,340.167 11.5,339.5 Z"/></g>
<g><path style="opacity:0.004" fill="#fefffe" d="M 104.5,342.5 C 105.833,343.167 105.833,343.167 104.5,342.5 Z"/></g>
<g><path style="opacity:0.004" fill="#fefffe" d="M 299.5,344.5 C 300.833,345.167 300.833,345.167 299.5,344.5 Z"/></g>
<g><path style="opacity:0.004" fill="#fefffe" d="M 485.5,361.5 C 486.833,362.167 486.833,362.167 485.5,361.5 Z"/></g>
<g><path style="opacity:0.004" fill="#fefffe" d="M 333.5,366.5 C 334.833,367.167 334.833,367.167 333.5,366.5 Z"/></g>
<g><path style="opacity:0.004" fill="#fefffe" d="M 276.5,374.5 C 277.833,375.167 277.833,375.167 276.5,374.5 Z"/></g>
<g><path style="opacity:0.004" fill="#fefffe" d="M 465.5,379.5 C 466.833,380.167 466.833,380.167 465.5,379.5 Z"/></g>
<g><path style="opacity:0.004" fill="#fefffe" d="M 234.5,381.5 C 235.833,382.167 235.833,382.167 234.5,381.5 Z"/></g>
<g><path style="opacity:0.004" fill="#fefffe" d="M 330.5,384.5 C 331.833,385.167 331.833,385.167 330.5,384.5 Z"/></g>
<g><path style="opacity:0.004" fill="#fefffe" d="M 470.5,393.5 C 471.833,394.167 471.833,394.167 470.5,393.5 Z"/></g>
<g><path style="opacity:0.004" fill="#fefffe" d="M 451.5,395.5 C 452.833,396.167 452.833,396.167 451.5,395.5 Z"/></g>
<g><path style="opacity:0.004" fill="#fefffe" d="M 10.5,399.5 C 11.8333,400.167 11.8333,400.167 10.5,399.5 Z"/></g>
<g><path style="opacity:0.004" fill="#fefffe" d="M 144.5,401.5 C 145.833,402.167 145.833,402.167 144.5,401.5 Z"/></g>
<g><path style="opacity:0.004" fill="#fefffe" d="M 324.5,425.5 C 325.833,426.167 325.833,426.167 324.5,425.5 Z"/></g>
<g><path style="opacity:0.004" fill="#fefffe" d="M 393.5,425.5 C 394.833,426.167 394.833,426.167 393.5,425.5 Z"/></g>
<g><path style="opacity:0.004" fill="#fefffe" d="M 362.5,428.5 C 363.833,429.167 363.833,429.167 362.5,428.5 Z"/></g>
<g><path style="opacity:0.004" fill="#fefffe" d="M 242.5,430.5 C 243.833,431.167 243.833,431.167 242.5,430.5 Z"/></g>
<g><path style="opacity:0.004" fill="#fefffe" d="M 339.5,440.5 C 340.833,441.167 340.833,441.167 339.5,440.5 Z"/></g>
<g><path style="opacity:0.004" fill="#fefffe" d="M 79.5,453.5 C 80.8333,454.167 80.8333,454.167 79.5,453.5 Z"/></g>
<g><path style="opacity:0.004" fill="#fefffe" d="M 248.5,465.5 C 249.833,466.167 249.833,466.167 248.5,465.5 Z"/></g>
<g><path style="opacity:0.004" fill="#fefffe" d="M 39.5,476.5 C 40.8333,477.167 40.8333,477.167 39.5,476.5 Z"/></g>
<g><path style="opacity:0.004" fill="#fefffe" d="M 51.5,480.5 C 52.8333,481.167 52.8333,481.167 51.5,480.5 Z"/></g>
<g><path style="opacity:0.004" fill="#fefffe" d="M 440.5,492.5 C 441.833,493.167 441.833,493.167 440.5,492.5 Z"/></g>
<g><path style="opacity:0.004" fill="#fefffe" d="M 91.5,493.5 C 92.8333,494.167 92.8333,494.167 91.5,493.5 Z"/></g>
</svg>
